<svg width="132" height="44" viewBox="0 0 132 44" fill="none" xmlns="http://www.w3.org/2000/svg">
<path d="M121.49 0H10.518C10.113 0 9.713 0 9.31 0C8.972 0 8.637 0.01 8.296 0.02C7.556 0.02 6.817 0.09 6.086 0.21C5.356 0.33 4.649 0.57 3.989 0.9C3.33 1.24 2.727 1.67 2.203 2.2C1.677 2.72 1.238 3.32 0.904 3.98C0.569 4.64 0.336 5.34 0.214 6.07C0.092 6.8 0.025 7.54 0.017 8.28C0.006 8.61 0.005 8.95 0 9.29V34.71C0.005 35.06 0.006 35.39 0.017 35.73C0.025 36.47 0.092 37.2 0.214 37.93C0.336 38.66 0.568 39.37 0.904 40.03C1.238 40.68 1.677 41.28 2.203 41.8C2.725 42.33 3.328 42.76 3.989 43.1C4.649 43.43 5.356 43.67 6.086 43.79C6.817 43.91 7.556 43.98 8.296 43.99C8.637 43.99 8.972 44 9.31 44C9.713 44 10.113 44 10.518 44H121.49C121.88 44 122.29 44 122.68 44C123.02 44 123.36 43.99 123.7 43.99C124.44 43.98 125.18 43.91 125.91 43.79C126.64 43.67 127.35 43.43 128.01 43.1C128.67 42.76 129.27 42.33 129.8 41.8C130.32 41.28 130.76 40.68 131.1 40.03C131.43 39.37 131.66 38.66 131.78 37.93C131.91 37.2 131.97 36.47 131.99 35.73C131.99 35.39 131.99 35.06 131.99 34.71C132 34.31 132 33.92 132 33.51V10.49C132 10.09 132 9.69 131.99 9.29C131.99 8.95 131.99 8.61 131.99 8.28C131.97 7.54 131.91 6.8 131.78 6.07C131.66 5.35 131.43 4.64 131.1 3.98C130.42 2.66 129.34 1.58 128.01 0.9C127.35 0.57 126.64 0.33 125.91 0.21C125.18 0.09 124.44 0.02 123.7 0.02C123.36 0.01 123.02 0 122.68 0C122.29 0 121.88 0 121.49 0Z" fill="#A6A6A6"/>
<path d="M9.31489 43.04C8.97889 43.04 8.65089 43.03 8.31789 43.03C7.62689 43.02 6.93789 42.96 6.25589 42.85C5.61989 42.74 5.00389 42.53 4.42789 42.24C3.85789 41.96 3.33789 41.58 2.88689 41.13C2.43089 40.68 2.04989 40.16 1.76189 39.59C1.46989 39.02 1.26789 38.4 1.16289 37.77C1.04889 37.08 0.987891 36.39 0.978891 35.7C0.971891 35.47 0.962891 34.7 0.962891 34.7V9.29002C0.962891 9.29002 0.972891 8.53002 0.978891 8.30002C0.987891 7.61002 1.04889 6.93002 1.16189 6.25002C1.26689 5.61002 1.46889 4.99002 1.76089 4.42002C2.04889 3.85002 2.42689 3.33002 2.88089 2.88002C3.33389 2.43002 3.85589 2.05002 4.42789 1.75002C5.00189 1.47002 5.61689 1.26002 6.25189 1.16002C6.93589 1.04002 7.62689 0.980022 8.31989 0.980022L9.31589 0.960022H122.68L123.69 0.980022C124.37 0.980022 125.06 1.04002 125.74 1.16002C126.38 1.26002 127 1.47002 127.58 1.76002C128.72 2.35002 129.66 3.28002 130.24 4.42002C130.53 4.99002 130.73 5.60002 130.83 6.23002C130.95 6.92002 131.01 7.61002 131.02 8.31002C131.03 8.62002 131.03 8.96002 131.03 9.29002C131.04 9.70002 131.04 10.09 131.04 10.49V33.51C131.04 33.91 131.04 34.3 131.03 34.69C131.03 35.05 131.03 35.38 131.02 35.72C131.01 36.4 130.95 37.08 130.84 37.76C130.73 38.39 130.53 39.01 130.24 39.59C129.95 40.16 129.57 40.67 129.12 41.12C128.67 41.57 128.15 41.95 127.58 42.24C127 42.53 126.38 42.74 125.74 42.85C125.05 42.96 124.36 43.02 123.67 43.03C123.35 43.03 123.01 43.04 122.68 43.04H121.49H9.31489Z" fill="black"/>
<path d="M27.3224 22.33C27.3344 21.41 27.5794 20.51 28.0334 19.71C28.4884 18.92 29.1374 18.24 29.9224 17.76C29.4234 17.05 28.7664 16.47 28.0024 16.06C27.2384 15.65 26.3874 15.42 25.5194 15.39C23.6674 15.2 21.8714 16.5 20.9274 16.5C19.9654 16.5 18.5124 15.41 16.9474 15.44C15.9344 15.47 14.9484 15.77 14.0834 16.29C13.2184 16.82 12.5054 17.56 12.0134 18.44C9.87935 22.13 11.4714 27.54 13.5144 30.52C14.5374 31.97 15.7324 33.6 17.2954 33.54C18.8254 33.48 19.3974 32.57 21.2434 32.57C23.0734 32.57 23.6094 33.54 25.2054 33.51C26.8464 33.48 27.8814 32.04 28.8674 30.57C29.6024 29.53 30.1674 28.38 30.5424 27.17C29.5894 26.77 28.7754 26.09 28.2024 25.23C27.6294 24.37 27.3234 23.36 27.3224 22.33Z" fill="white"/>
<path d="M24.3095 13.43C25.2045 12.36 25.6455 10.98 25.5385 9.59003C24.1715 9.74003 22.9075 10.39 22.0005 11.42C21.5575 11.92 21.2175 12.51 21.0005 13.14C20.7845 13.78 20.6955 14.45 20.7395 15.12C21.4235 15.12 22.0995 14.97 22.7185 14.68C23.3365 14.39 23.8805 13.96 24.3095 13.43Z" fill="white"/>
<path fill-rule="evenodd" clip-rule="evenodd" d="M41.4416 29.85H46.6596L47.9196 33.55H50.1696L45.2196 19.89H42.9196L37.9756 33.55H40.1876L41.4416 29.85ZM46.1196 28.15H41.9826L44.0196 22.16H44.0796L46.1196 28.15Z" fill="white"/>
<path fill-rule="evenodd" clip-rule="evenodd" d="M56.6804 33.65C59.1804 33.65 60.8504 31.66 60.8504 28.57C60.8504 25.48 59.1804 23.48 56.6404 23.48C56.0004 23.46 55.3704 23.61 54.8104 23.92C54.2504 24.23 53.7804 24.69 53.4604 25.24H53.4204V23.59H51.4404V36.84H53.4904V31.91H53.5404C53.8404 32.46 54.3004 32.92 54.8604 33.23C55.4104 33.54 56.0404 33.68 56.6804 33.65ZM56.1004 25.22C57.6904 25.22 58.7404 26.55 58.7404 28.57C58.7404 30.6 57.6904 31.92 56.1004 31.92C54.5304 31.92 53.4804 30.57 53.4804 28.57C53.4804 26.58 54.5304 25.22 56.1004 25.22Z" fill="white"/>
<path fill-rule="evenodd" clip-rule="evenodd" d="M67.6697 33.65C70.1797 33.65 71.8397 31.66 71.8397 28.57C71.8397 25.48 70.1697 23.48 67.6297 23.48C66.9897 23.46 66.3597 23.61 65.7997 23.92C65.2397 24.23 64.7697 24.69 64.4497 25.24H64.4097V23.59H62.4297V36.84H64.4797V31.91H64.5297C64.8297 32.46 65.2897 32.92 65.8497 33.23C66.3997 33.54 67.0397 33.68 67.6697 33.65ZM67.0897 25.22C68.6897 25.22 69.7297 26.55 69.7297 28.57C69.7297 30.6 68.6897 31.92 67.0897 31.92C65.5297 31.92 64.4697 30.57 64.4697 28.57C64.4697 26.58 65.5297 25.22 67.0897 25.22Z" fill="white"/>
<path d="M79.1 29.74C79.25 31.09 80.57 31.98 82.38 31.98C84.11 31.98 85.35 31.09 85.35 29.87C85.35 28.81 84.6 28.18 82.82 27.74L81.05 27.32C78.53 26.71 77.37 25.54 77.37 23.63C77.37 21.28 79.42 19.66 82.35 19.66C85.24 19.66 87.23 21.28 87.3 23.63H85.23C85.1 22.27 83.97 21.45 82.32 21.45C80.67 21.45 79.54 22.28 79.54 23.49C79.54 24.46 80.26 25.03 82.03 25.46L83.54 25.83C86.35 26.49 87.51 27.62 87.51 29.62C87.51 32.17 85.47 33.77 82.23 33.77C79.19 33.77 77.14 32.21 77 29.74H79.1Z" fill="white"/>
<path d="M91.9397 21.23V23.59H93.8397V25.21H91.9397V30.7C91.9397 31.55 92.3197 31.95 93.1497 31.95C93.3797 31.94 93.5997 31.93 93.8297 31.9V33.51C93.4497 33.58 93.0697 33.61 92.6897 33.6C90.6697 33.6 89.8797 32.85 89.8797 30.91V25.21H88.4297V23.59H89.8797V21.23H91.9397Z" fill="white"/>
<path fill-rule="evenodd" clip-rule="evenodd" d="M99.6704 23.46C96.7904 23.46 94.9404 25.43 94.9404 28.57C94.9404 31.71 96.7704 33.67 99.6704 33.67C102.58 33.67 104.41 31.71 104.41 28.57C104.41 25.43 102.57 23.46 99.6704 23.46ZM99.6704 25.15C101.33 25.15 102.32 26.42 102.32 28.57C102.32 30.72 101.33 31.98 99.6704 31.98C98.0104 31.98 97.0304 30.72 97.0304 28.57C97.0304 26.43 98.0104 25.15 99.6704 25.15Z" fill="white"/>
<path d="M106.1 23.59H108.06V25.28H108.1C108.24 24.75 108.55 24.28 108.98 23.96C109.42 23.63 109.96 23.46 110.51 23.48C110.74 23.48 110.98 23.51 111.21 23.56V25.47C110.91 25.38 110.6 25.34 110.29 25.35C109.99 25.34 109.69 25.39 109.42 25.5C109.14 25.61 108.89 25.79 108.69 26C108.49 26.22 108.33 26.48 108.24 26.76C108.15 27.04 108.12 27.34 108.15 27.64V33.55H106.1V23.59Z" fill="white"/>
<path fill-rule="evenodd" clip-rule="evenodd" d="M116.36 33.67C118.62 33.67 120.38 32.43 120.66 30.62H118.71C118.53 31.07 118.21 31.45 117.79 31.7C117.38 31.95 116.89 32.07 116.41 32.02C116.04 32.03 115.67 31.97 115.33 31.83C114.99 31.69 114.68 31.48 114.43 31.22C114.17 30.95 113.98 30.63 113.86 30.28C113.73 29.94 113.69 29.57 113.72 29.2V29.08H120.77V28.38C120.77 25.36 119.04 23.46 116.27 23.46C113.46 23.46 111.65 25.49 111.65 28.61C111.65 31.73 113.45 33.67 116.36 33.67ZM118.72 27.65H113.73C113.73 27.32 113.8 26.99 113.92 26.68C114.05 26.37 114.24 26.09 114.47 25.86C114.71 25.62 114.99 25.43 115.3 25.31C115.61 25.18 115.94 25.12 116.27 25.12C116.6 25.11 116.93 25.17 117.24 25.3C117.55 25.43 117.82 25.61 118.05 25.85C118.28 26.09 118.46 26.37 118.58 26.68C118.69 26.99 118.74 27.32 118.72 27.65Z" fill="white"/>
<path fill-rule="evenodd" clip-rule="evenodd" d="M42.9897 9.79002C42.5897 9.64002 42.1597 9.57002 41.7257 9.60002H39.3477V16.17H41.7257C43.6897 16.17 44.8197 14.96 44.8197 12.87C44.8797 12.44 44.8397 12.01 44.6997 11.6C44.5697 11.19 44.3397 10.82 44.0497 10.5C43.7497 10.19 43.3897 9.95002 42.9897 9.79002ZM41.6107 15.24H40.3697V10.53H41.6107C41.9167 10.51 42.2197 10.57 42.5097 10.68C42.7897 10.79 43.0397 10.97 43.2497 11.19C43.4597 11.42 43.6097 11.69 43.7097 11.98C43.7997 12.27 43.8197 12.58 43.7797 12.88C43.8297 13.18 43.7997 13.49 43.7097 13.79C43.6197 14.08 43.4697 14.35 43.2597 14.57C43.0497 14.8 42.7997 14.98 42.5097 15.09C42.2297 15.21 41.9187 15.26 41.6107 15.24Z" fill="white"/>
<path fill-rule="evenodd" clip-rule="evenodd" d="M46.0897 12.72C45.9797 13.03 45.9497 13.36 45.9797 13.69C45.9497 14.01 45.9797 14.34 46.0897 14.65C46.1897 14.97 46.3597 15.25 46.5797 15.49C46.7997 15.74 47.0697 15.93 47.3697 16.06C47.6697 16.19 47.9897 16.26 48.3197 16.26C48.6497 16.26 48.9697 16.19 49.2697 16.06C49.5697 15.93 49.8397 15.74 50.0597 15.49C50.2797 15.25 50.4497 14.97 50.5497 14.65C50.6597 14.34 50.6897 14.01 50.6597 13.69C50.6897 13.36 50.6597 13.03 50.5497 12.72C50.4497 12.41 50.2797 12.13 50.0597 11.89C49.8397 11.65 49.5697 11.45 49.2697 11.32C48.9697 11.19 48.6497 11.12 48.3197 11.12C47.9897 11.12 47.6697 11.19 47.3697 11.32C47.0697 11.45 46.7997 11.65 46.5797 11.89C46.3597 12.13 46.1897 12.41 46.0897 12.72ZM48.3197 11.99C49.1697 11.99 49.6497 12.62 49.6497 13.69C49.6497 14.77 49.1697 15.39 48.3197 15.39C47.4697 15.39 46.9897 14.77 46.9897 13.69C46.9897 12.62 47.4697 11.99 48.3197 11.99Z" fill="white"/>
<path d="M56.8901 16.17H55.8701L54.8501 12.52H54.7701L53.7501 16.17H52.7401L51.3701 11.21H52.3601L53.2501 14.99H53.3301L54.3501 11.21H55.2901L56.3101 14.99H56.3901L57.2701 11.21H58.2501L56.8901 16.17Z" fill="white"/>
<path d="M59.4102 11.21H60.3502V12H60.4202C60.5502 11.72 60.7602 11.48 61.0202 11.32C61.2902 11.17 61.6002 11.09 61.9002 11.12C62.1502 11.1 62.3902 11.14 62.6102 11.23C62.8402 11.31 63.0402 11.45 63.2102 11.63C63.3702 11.8 63.5002 12.02 63.5702 12.25C63.6402 12.48 63.6602 12.72 63.6202 12.96V16.17H62.6402V13.21C62.6402 12.41 62.3002 12.01 61.5702 12.01C61.4102 12.01 61.2402 12.03 61.0902 12.1C60.9402 12.16 60.8002 12.25 60.6902 12.37C60.5802 12.49 60.4902 12.63 60.4402 12.79C60.3902 12.94 60.3702 13.11 60.3902 13.27V16.17H59.4102V11.21Z" fill="white"/>
<path d="M65.1897 9.28003H66.1697V16.17H65.1897V9.28003Z" fill="white"/>
<path fill-rule="evenodd" clip-rule="evenodd" d="M67.6405 12.72C67.5305 13.03 67.5005 13.36 67.5305 13.69C67.5005 14.01 67.5305 14.34 67.6405 14.65C67.7405 14.97 67.9105 15.25 68.1305 15.49C68.3505 15.74 68.6205 15.93 68.9205 16.06C69.2205 16.19 69.5405 16.26 69.8705 16.26C70.2005 16.26 70.5205 16.19 70.8205 16.06C71.1205 15.93 71.3905 15.74 71.6105 15.49C71.8405 15.25 72.0005 14.97 72.1105 14.65C72.2105 14.34 72.2505 14.01 72.2105 13.69C72.2505 13.36 72.2105 13.03 72.1005 12.72C72.0005 12.41 71.8305 12.13 71.6105 11.89C71.3905 11.65 71.1205 11.45 70.8205 11.32C70.5205 11.19 70.2005 11.12 69.8705 11.12C69.5405 11.12 69.2205 11.19 68.9205 11.32C68.6205 11.45 68.3505 11.65 68.1305 11.89C67.9105 12.13 67.7405 12.41 67.6405 12.72ZM69.8705 11.99C70.7205 11.99 71.2105 12.62 71.2105 13.69C71.2105 14.77 70.7205 15.39 69.8705 15.39C69.0205 15.39 68.5405 14.77 68.5405 13.69C68.5405 12.62 69.0205 11.99 69.8705 11.99Z" fill="white"/>
<path fill-rule="evenodd" clip-rule="evenodd" d="M75.09 13.29C73.91 13.36 73.25 13.88 73.25 14.77C73.25 14.98 73.29 15.18 73.38 15.37C73.46 15.56 73.59 15.73 73.74 15.87C73.9 16.01 74.08 16.12 74.28 16.18C74.48 16.25 74.69 16.27 74.9 16.25C75.2 16.26 75.49 16.2 75.75 16.06C76.02 15.92 76.24 15.72 76.39 15.47H76.47V16.17H77.42V12.78C77.42 11.74 76.71 11.12 75.47 11.12C74.34 11.12 73.54 11.66 73.44 12.52H74.39C74.5 12.17 74.87 11.96 75.42 11.96C76.09 11.96 76.44 12.26 76.44 12.78V13.21L75.09 13.29ZM76.44 13.93V14.34C76.43 14.5 76.39 14.65 76.32 14.79C76.24 14.93 76.15 15.06 76.03 15.16C75.91 15.26 75.77 15.33 75.62 15.38C75.47 15.43 75.31 15.44 75.15 15.43C74.62 15.43 74.23 15.17 74.23 14.72C74.23 14.28 74.54 14.05 75.23 14.01L76.44 13.93Z" fill="white"/>
<path fill-rule="evenodd" clip-rule="evenodd" d="M80.7702 11.13C79.5102 11.13 78.7002 12.12 78.7002 13.69C78.7002 15.26 79.5002 16.25 80.7702 16.25C81.0802 16.26 81.3902 16.19 81.6702 16.03C81.9402 15.88 82.1702 15.66 82.3302 15.39H82.4002V16.17H83.3402V9.28003H82.3602V12H82.2902C82.1402 11.73 81.9202 11.5 81.6502 11.35C81.3802 11.19 81.0802 11.12 80.7702 11.13ZM81.0402 15.37C80.2102 15.37 79.7202 14.74 79.7202 13.69C79.7202 12.65 80.2202 12.01 81.0402 12.01C81.8602 12.01 82.3802 12.66 82.3802 13.69C82.3802 14.73 81.8702 15.37 81.0402 15.37Z" fill="white"/>
<path fill-rule="evenodd" clip-rule="evenodd" d="M87.5096 12.72C87.3996 13.03 87.3696 13.36 87.3996 13.69C87.3696 14.01 87.3996 14.34 87.5096 14.65C87.6096 14.97 87.7796 15.25 87.9996 15.49C88.2196 15.74 88.4896 15.93 88.7896 16.06C89.0896 16.19 89.4096 16.26 89.7396 16.26C90.0696 16.26 90.3896 16.19 90.6896 16.06C90.9896 15.93 91.2596 15.74 91.4796 15.49C91.6996 15.25 91.8696 14.97 91.9696 14.65C92.0796 14.34 92.1096 14.01 92.0796 13.69C92.1096 13.36 92.0796 13.03 91.9696 12.72C91.8696 12.41 91.6996 12.13 91.4796 11.89C91.2596 11.65 90.9896 11.45 90.6896 11.32C90.3896 11.19 90.0696 11.12 89.7396 11.12C89.4096 11.12 89.0896 11.19 88.7896 11.32C88.4896 11.45 88.2196 11.65 87.9996 11.89C87.7796 12.13 87.6096 12.41 87.5096 12.72ZM89.7396 11.99C90.5896 11.99 91.0696 12.62 91.0696 13.69C91.0696 14.77 90.5896 15.39 89.7396 15.39C88.8896 15.39 88.4096 14.77 88.4096 13.69C88.4096 12.62 88.8896 11.99 89.7396 11.99Z" fill="white"/>
<path d="M93.4004 11.21H94.3404V12H94.4104C94.5404 11.72 94.7504 11.48 95.0104 11.32C95.2804 11.17 95.5904 11.09 95.9004 11.12C96.1404 11.1 96.3804 11.14 96.6104 11.23C96.8304 11.31 97.0404 11.45 97.2004 11.63C97.3704 11.8 97.4904 12.02 97.5604 12.25C97.6304 12.48 97.6504 12.72 97.6204 12.96V16.17H96.6404V13.21C96.6404 12.41 96.2904 12.01 95.5604 12.01C95.4004 12.01 95.2404 12.03 95.0804 12.1C94.9304 12.16 94.7904 12.25 94.6804 12.37C94.5704 12.49 94.4804 12.63 94.4304 12.79C94.3804 12.94 94.3604 13.11 94.3804 13.27V16.17H93.4004V11.21Z" fill="white"/>
<path d="M103.16 9.97998V11.24H104.23V12.06H103.16V14.61C103.16 15.13 103.37 15.35 103.86 15.35C103.98 15.35 104.11 15.35 104.23 15.33V16.15C104.06 16.18 103.88 16.19 103.7 16.2C102.61 16.2 102.17 15.81 102.17 14.86V12.06H101.39V11.24H102.17V9.97998H103.16Z" fill="white"/>
<path d="M105.57 9.28003H106.54V12.01H106.62C106.75 11.73 106.97 11.49 107.24 11.33C107.51 11.17 107.82 11.1 108.13 11.12C108.37 11.11 108.62 11.15 108.84 11.24C109.06 11.33 109.26 11.47 109.43 11.65C109.59 11.82 109.71 12.03 109.78 12.26C109.86 12.49 109.88 12.73 109.84 12.97V16.17H108.86V13.21C108.86 12.42 108.49 12.02 107.8 12.02C107.63 12.01 107.46 12.03 107.3 12.09C107.15 12.14 107 12.24 106.88 12.36C106.76 12.48 106.67 12.62 106.62 12.78C106.56 12.94 106.54 13.11 106.55 13.27V16.17H105.57V9.28003Z" fill="white"/>
<path fill-rule="evenodd" clip-rule="evenodd" d="M114.75 15.94C115.14 15.67 115.43 15.28 115.56 14.83H114.62C114.5 15.04 114.33 15.2 114.12 15.31C113.91 15.42 113.67 15.46 113.44 15.43C113.25 15.43 113.07 15.4 112.9 15.32C112.73 15.25 112.58 15.15 112.46 15.01C112.33 14.88 112.24 14.72 112.18 14.55C112.12 14.38 112.1 14.19 112.11 14.01V13.96H115.62V13.62C115.62 12.06 114.79 11.12 113.4 11.12C113.08 11.12 112.75 11.18 112.45 11.32C112.15 11.45 111.88 11.65 111.67 11.89C111.45 12.14 111.29 12.43 111.19 12.74C111.1 13.05 111.07 13.38 111.11 13.71C111.07 14.03 111.1 14.36 111.19 14.67C111.29 14.98 111.45 15.27 111.67 15.51C111.89 15.76 112.15 15.95 112.46 16.08C112.76 16.21 113.08 16.27 113.41 16.26C113.88 16.31 114.35 16.2 114.75 15.94ZM114.62 13.23H112.11C112.11 13.06 112.14 12.9 112.21 12.74C112.27 12.58 112.36 12.44 112.48 12.32C112.6 12.2 112.75 12.11 112.9 12.04C113.06 11.98 113.23 11.95 113.4 11.95C113.57 11.95 113.73 11.98 113.89 12.04C114.04 12.11 114.18 12.2 114.3 12.32C114.41 12.44 114.5 12.59 114.55 12.74C114.61 12.9 114.63 13.07 114.62 13.23Z" fill="white"/>
</svg>
