<svg width="149" height="45" viewBox="0 0 149 45" fill="none" xmlns="http://www.w3.org/2000/svg">
<path d="M143.481 0H5.519C2.471 0 0 2.46 0 5.5V38.5C0 41.54 2.471 44 5.519 44H143.481C146.529 44 149 41.54 149 38.5V5.5C149 2.46 146.529 0 143.481 0Z" fill="black"/>
<path fill-rule="evenodd" clip-rule="evenodd" d="M5.519 0H143.481V0.01C144.945 0.01 146.349 0.59 147.384 1.62C148.419 2.65 149 4.05 149 5.51V38.51C149 39.97 148.419 41.37 147.384 42.4C146.349 43.43 144.945 44.01 143.481 44.01H5.519C4.055 44.01 2.651 43.43 1.616 42.4C0.581 41.37 0 39.97 0 38.51V5.5C0 4.04 0.581 2.64 1.616 1.61C2.651 0.58 4.055 0 5.519 0ZM146.759 2.23C145.89 1.37 144.711 0.88 143.481 0.88H5.519C4.288 0.88 3.109 1.37 2.24 2.24C1.371 3.11 0.883 4.28 0.883 5.51V38.51C0.886 39.74 1.375 40.91 2.244 41.77C3.113 42.64 4.29 43.13 5.519 43.13H143.481C144.71 43.13 145.887 42.64 146.756 41.77C147.625 40.91 148.114 39.74 148.117 38.51V5.5C148.117 4.27 147.629 3.1 146.759 2.23Z" fill="#A6A6A6"/>
<path d="M52.3376 11.26C52.3556 11.67 52.2936 12.07 52.1536 12.45C52.0126 12.82 51.7976 13.17 51.5206 13.46C51.2056 13.79 50.8256 14.04 50.4056 14.21C49.9846 14.38 49.5336 14.46 49.0816 14.44C48.6276 14.45 48.1776 14.36 47.7576 14.19C47.3386 14.02 46.9566 13.77 46.6366 13.45C46.3166 13.13 46.0646 12.75 45.8946 12.33C45.7246 11.91 45.6416 11.46 45.6486 11.01C45.6366 10.56 45.7166 10.1 45.8846 9.68001C46.0526 9.26001 46.3046 8.87001 46.6246 8.55001C46.9456 8.23001 47.3276 7.97001 47.7506 7.80001C48.1726 7.63001 48.6246 7.54001 49.0816 7.55001C49.5476 7.55001 50.0086 7.64001 50.4386 7.82001C50.8386 7.98001 51.1936 8.23001 51.4766 8.56001L50.8916 9.14001C50.6706 8.88001 50.3926 8.67001 50.0786 8.54001C49.7646 8.40001 49.4226 8.34001 49.0816 8.36001C48.4176 8.36001 47.7826 8.63001 47.3156 9.10001C47.0526 9.34001 46.8446 9.64001 46.7056 9.97001C46.5666 10.3 46.4996 10.65 46.5096 11.01C46.4976 11.35 46.5556 11.7 46.6796 12.02C46.8036 12.34 46.9916 12.63 47.2316 12.87C47.4726 13.12 47.7596 13.31 48.0776 13.44C48.3956 13.58 48.7366 13.64 49.0816 13.64C49.4246 13.65 49.7656 13.59 50.0846 13.46C50.4036 13.34 50.6936 13.15 50.9356 12.9C51.2766 12.54 51.4736 12.07 51.4876 11.57H49.0816V10.77H52.2926C52.3246 10.93 52.3386 11.1 52.3376 11.26Z" fill="white" stroke="white" stroke-width="0.2"/>
<path d="M57.4265 8.50002H54.4135V10.6H57.1285V11.4H54.4135V13.49H57.4265V14.31H53.5635V7.71002H57.4265V8.50002Z" fill="white" stroke="white" stroke-width="0.2"/>
<path d="M61.0125 14.31H60.1625V8.50002H58.3525V7.71002H62.9105V8.51002H61.0125V14.31Z" fill="white" stroke="white" stroke-width="0.2"/>
<path d="M66.1561 14.31V7.71002H67.0061V14.31H66.1561Z" fill="white" stroke="white" stroke-width="0.2"/>
<path d="M70.7802 14.31H69.9312V8.50002H68.0762V7.71002H72.6352V8.51002H70.7802V14.31Z" fill="white" stroke="white" stroke-width="0.2"/>
<path fill-rule="evenodd" clip-rule="evenodd" d="M80.13 14.18C80.546 14.01 80.925 13.76 81.244 13.44C81.561 13.12 81.811 12.74 81.98 12.32C82.149 11.91 82.232 11.46 82.226 11.01C82.24 10.56 82.161 10.1 81.992 9.67999C81.823 9.25999 81.568 8.87999 81.244 8.55999C80.926 8.23999 80.547 7.98999 80.131 7.80999C79.714 7.63999 79.267 7.54999 78.815 7.54999C78.364 7.54999 77.917 7.63999 77.5 7.80999C77.084 7.98999 76.705 8.23999 76.387 8.55999C76.069 8.87999 75.819 9.26999 75.652 9.68999C75.486 10.11 75.405 10.56 75.416 11.01C75.407 11.46 75.489 11.91 75.656 12.32C75.823 12.74 76.071 13.12 76.387 13.44C76.706 13.76 77.085 14.01 77.501 14.18C77.918 14.36 78.364 14.44 78.815 14.44C79.266 14.44 79.713 14.36 80.13 14.18ZM78.815 13.63C78.142 13.63 77.496 13.36 77.016 12.89C76.776 12.64 76.587 12.35 76.462 12.02C76.337 11.7 76.278 11.36 76.288 11.01C76.276 10.66 76.334 10.31 76.459 9.98999C76.584 9.65999 76.774 9.35999 77.016 9.10999C77.496 8.63999 78.142 8.36999 78.815 8.36999C79.489 8.36999 80.135 8.63999 80.614 9.10999C80.861 9.35999 81.054 9.65999 81.181 9.97999C81.309 10.31 81.367 10.66 81.354 11.01C81.364 11.36 81.304 11.7 81.177 12.03C81.05 12.35 80.859 12.64 80.614 12.89C80.135 13.36 79.489 13.63 78.815 13.63Z" fill="white"/>
<path d="M81.244 13.44L81.3148 13.5106L81.3151 13.5104L81.244 13.44ZM80.13 14.18L80.0922 14.0874L80.0904 14.0882L80.13 14.18ZM81.98 12.32L81.8876 12.2819L81.8873 12.2827L81.98 12.32ZM82.226 11.01L82.126 11.0069L82.126 11.0113L82.226 11.01ZM81.992 9.67999L82.0848 9.64266L81.992 9.67999ZM81.244 8.55999L81.1731 8.63048L81.1738 8.63114L81.244 8.55999ZM80.131 7.80999L80.1707 7.71819L80.1688 7.71739L80.131 7.80999ZM77.5 7.80999L77.4623 7.71737L77.4603 7.71821L77.5 7.80999ZM76.387 8.55999L76.458 8.63048L76.387 8.55999ZM75.652 9.68999L75.5591 9.65304L75.559 9.65323L75.652 9.68999ZM75.416 11.01L75.5161 11.012L75.516 11.0075L75.416 11.01ZM75.656 12.32L75.749 12.283L75.7486 12.2823L75.656 12.32ZM76.387 13.44L76.3159 13.5103L76.3162 13.5106L76.387 13.44ZM77.501 14.18L77.5407 14.0882L77.5389 14.0874L77.501 14.18ZM77.016 12.89L76.9439 12.9593L76.9461 12.9614L77.016 12.89ZM76.462 12.02L76.5555 11.9846L76.5552 11.9836L76.462 12.02ZM76.288 11.01L76.3882 11.0128L76.388 11.0066L76.288 11.01ZM76.459 9.98999L76.5522 10.0264L76.5525 10.0254L76.459 9.98999ZM77.016 9.10999L76.946 9.03851L76.9442 9.04044L77.016 9.10999ZM80.614 9.10999L80.6852 9.0397L80.6841 9.03861L80.614 9.10999ZM81.181 9.97999L81.2743 9.94382L81.274 9.9431L81.181 9.97999ZM81.354 11.01L81.2539 11.0063L81.2541 11.0128L81.354 11.01ZM81.177 12.03L81.27 12.0669L81.2704 12.0659L81.177 12.03ZM80.614 12.89L80.6841 12.9614L80.6854 12.96L80.614 12.89ZM81.1732 13.3694C80.8638 13.6798 80.4961 13.9224 80.0922 14.0874L80.1679 14.2726C80.596 14.0976 80.9862 13.8402 81.3148 13.5106L81.1732 13.3694ZM81.8873 12.2827C81.7232 12.6903 81.4806 13.0591 81.173 13.3696L81.3151 13.5104C81.6415 13.1809 81.8988 12.7897 82.0728 12.3573L81.8873 12.2827ZM82.126 11.0113C82.1319 11.4484 82.0512 11.8849 81.8876 12.2819L82.0725 12.3581C82.2468 11.9351 82.3322 11.4716 82.326 11.0087L82.126 11.0113ZM81.8993 9.71732C82.063 10.1242 82.1397 10.5704 82.1261 11.0069L82.326 11.0131C82.3404 10.5496 82.2591 10.0758 82.0848 9.64266L81.8993 9.71732ZM81.1738 8.63114C81.4882 8.94174 81.7355 9.3103 81.8993 9.71732L82.0848 9.64266C81.9106 9.20968 81.6478 8.81823 81.3143 8.48884L81.1738 8.63114ZM80.0913 7.90176C80.4967 8.07716 80.8648 8.32024 81.1731 8.63048L81.315 8.4895C80.9873 8.15973 80.5974 7.90282 80.1707 7.71821L80.0913 7.90176ZM78.815 7.64999C79.2538 7.64999 79.688 7.73735 80.0933 7.90259L80.1688 7.71739C79.7401 7.54263 79.2803 7.44999 78.815 7.44999V7.64999ZM77.5378 7.90259C77.9431 7.73734 78.3773 7.64999 78.815 7.64999V7.44999C78.3507 7.44999 77.8909 7.54263 77.4623 7.71739L77.5378 7.90259ZM76.458 8.63048C76.7663 8.32024 77.1344 8.07716 77.5397 7.90176L77.4603 7.71821C77.0337 7.90282 76.6438 8.15973 76.3161 8.4895L76.458 8.63048ZM75.745 9.72694C75.9072 9.3188 76.15 8.94038 76.458 8.63048L76.3161 8.4895C75.9881 8.81959 75.7308 9.22118 75.5591 9.65304L75.745 9.72694ZM75.516 11.0075C75.5053 10.5711 75.5839 10.1344 75.745 9.72674L75.559 9.65323C75.3882 10.0855 75.3047 10.5489 75.3161 11.0124L75.516 11.0075ZM75.7486 12.2823C75.5869 11.8852 75.5073 11.4487 75.516 11.012L75.316 11.008C75.3068 11.4713 75.3912 11.9348 75.5634 12.3577L75.7486 12.2823ZM76.4582 13.3697C76.1516 13.0593 75.911 12.6907 75.749 12.283L75.5631 12.3569C75.735 12.7893 75.9904 13.1807 76.3159 13.5103L76.4582 13.3697ZM77.5389 14.0874C77.135 13.9224 76.7672 13.6798 76.4578 13.3694L76.3162 13.5106C76.6448 13.8402 77.0351 14.0976 77.4632 14.2726L77.5389 14.0874ZM78.815 14.34C78.3758 14.34 77.9436 14.2621 77.5407 14.0882L77.4614 14.2718C77.8925 14.4579 78.3522 14.54 78.815 14.54V14.34ZM80.0904 14.0882C79.6875 14.2621 79.2542 14.34 78.815 14.34V14.54C79.2778 14.54 79.7386 14.4579 80.1697 14.2718L80.0904 14.0882ZM76.9461 12.9614C77.4443 13.4493 78.1153 13.73 78.815 13.73V13.53C78.1688 13.53 77.5477 13.2707 77.086 12.8185L76.9461 12.9614ZM76.3685 12.0554C76.4986 12.3988 76.6951 12.7001 76.9439 12.9592L77.0882 12.8207C76.8569 12.5798 76.6755 12.3012 76.5555 11.9846L76.3685 12.0554ZM76.1881 11.0071C76.1777 11.3704 76.239 11.7238 76.3689 12.0564L76.5552 11.9836C76.4351 11.6762 76.3784 11.3496 76.388 11.0128L76.1881 11.0071ZM76.3659 9.9536C76.2358 10.2867 76.1756 10.6503 76.1881 11.0134L76.388 11.0066C76.3764 10.6697 76.4323 10.3333 76.5522 10.0264L76.3659 9.9536ZM76.9442 9.04044C76.6926 9.30034 76.4953 9.61199 76.3655 9.95457L76.5525 10.0254C76.6728 9.70798 76.8555 9.41964 77.0879 9.17954L76.9442 9.04044ZM78.815 8.26999C78.1153 8.26999 77.4443 8.55067 76.9461 9.03854L77.086 9.18144C77.5477 8.7293 78.1688 8.46999 78.815 8.46999V8.26999ZM80.6841 9.03861C80.1868 8.55065 79.5158 8.26999 78.815 8.26999V8.46999C79.4623 8.46999 80.0833 8.72933 80.544 9.18137L80.6841 9.03861ZM81.274 9.9431C81.1421 9.61094 80.9418 9.2995 80.6852 9.03971L80.5429 9.18027C80.7802 9.42048 80.9659 9.70904 81.0881 10.0169L81.274 9.9431ZM81.454 11.0137C81.4675 10.6502 81.4072 10.2866 81.2743 9.94383L81.0878 10.0162C81.2108 10.3334 81.2666 10.6698 81.2541 11.0063L81.454 11.0137ZM81.2704 12.0659C81.402 11.7239 81.4644 11.3708 81.454 11.0071L81.2541 11.0128C81.2637 11.3492 81.2061 11.676 81.0837 11.9941L81.2704 12.0659ZM80.6854 12.96C80.9394 12.7009 81.1379 12.3997 81.27 12.0669L81.0841 11.9931C80.9622 12.3003 80.7787 12.5791 80.5426 12.82L80.6854 12.96ZM78.815 13.73C79.5158 13.73 80.1868 13.4493 80.6841 12.9614L80.544 12.8186C80.0833 13.2706 79.4623 13.53 78.815 13.53V13.73Z" fill="white"/>
<path d="M83.418 14.31V7.71002H84.455L87.667 12.84V11.57V7.71002H88.517V14.31H87.634L84.323 8.92002V10.2V14.31H83.418Z" fill="white" stroke="white" stroke-width="0.2"/>
<path fill-rule="evenodd" clip-rule="evenodd" d="M52.702 25.31V27.3H57.459C57.389 28.24 56.999 29.12 56.355 29.8C55.878 30.28 55.305 30.66 54.672 30.91C54.039 31.16 53.36 31.28 52.68 31.25C51.275 31.25 49.927 30.69 48.934 29.7C47.94 28.71 47.382 27.37 47.382 25.97C47.382 24.57 47.94 23.23 48.934 22.24C49.927 21.25 51.275 20.69 52.68 20.69C54.017 20.67 55.307 21.18 56.267 22.11L57.668 20.7C57.014 20.06 56.238 19.55 55.385 19.21C54.533 18.87 53.621 18.7 52.702 18.71C51.721 18.67 50.742 18.83 49.824 19.18C48.906 19.53 48.068 20.06 47.361 20.74C46.653 21.41 46.09 22.23 45.705 23.13C45.321 24.03 45.123 25 45.123 25.98C45.123 26.96 45.321 27.92 45.705 28.82C46.09 29.72 46.653 30.54 47.361 31.22C48.068 31.9 48.906 32.42 49.824 32.77C50.742 33.12 51.721 33.28 52.702 33.24C53.645 33.28 54.585 33.12 55.461 32.77C56.337 32.42 57.127 31.89 57.779 31.21C58.945 29.95 59.568 28.28 59.512 26.56C59.532 26.15 59.513 25.73 59.456 25.31H52.702ZM72.607 24.72C73.376 24.21 74.28 23.93 75.206 23.92C75.828 23.91 76.445 24.03 77.021 24.26C77.598 24.49 78.122 24.83 78.561 25.27C79.001 25.71 79.348 26.23 79.582 26.8C79.815 27.38 79.93 27.99 79.919 28.61C79.917 29.53 79.64 30.44 79.125 31.2C78.609 31.97 77.877 32.57 77.021 32.92C76.165 33.27 75.223 33.37 74.315 33.19C73.406 33.01 72.571 32.56 71.915 31.91C71.26 31.26 70.812 30.43 70.63 29.52C70.447 28.62 70.537 27.68 70.889 26.82C71.241 25.97 71.839 25.24 72.607 24.72ZM73.563 31.06C74.06 31.35 74.633 31.48 75.206 31.44C75.568 31.43 75.924 31.35 76.254 31.2C76.583 31.05 76.88 30.84 77.127 30.58C77.374 30.32 77.565 30.01 77.69 29.67C77.815 29.33 77.871 28.97 77.855 28.61C77.858 28.04 77.688 27.48 77.366 27C77.044 26.53 76.586 26.16 76.052 25.95C75.518 25.74 74.932 25.69 74.371 25.82C73.81 25.94 73.3 26.23 72.907 26.65C72.515 27.07 72.258 27.6 72.171 28.16C72.084 28.73 72.17 29.31 72.418 29.83C72.667 30.34 73.065 30.77 73.563 31.06ZM64.975 23.92C64.046 23.92 63.137 24.19 62.361 24.7C61.586 25.21 60.979 25.93 60.619 26.79C60.258 27.64 60.16 28.58 60.336 29.49C60.513 30.4 60.956 31.23 61.609 31.89C62.263 32.55 63.098 33 64.008 33.18C64.918 33.37 65.862 33.28 66.722 32.93C67.581 32.57 68.316 31.98 68.834 31.21C69.353 30.44 69.63 29.54 69.633 28.61C69.643 28 69.53 27.39 69.3 26.82C69.07 26.25 68.728 25.73 68.294 25.29C67.86 24.85 67.343 24.51 66.773 24.27C66.203 24.04 65.592 23.92 64.975 23.92ZM63.321 31.08C63.824 31.37 64.401 31.49 64.975 31.44C65.333 31.42 65.684 31.34 66.009 31.19C66.333 31.04 66.625 30.83 66.867 30.56C67.109 30.3 67.297 29.99 67.419 29.66C67.541 29.32 67.596 28.97 67.58 28.61C67.582 28.04 67.41 27.47 67.085 27C66.761 26.52 66.301 26.16 65.764 25.95C65.227 25.74 64.639 25.69 64.077 25.82C63.515 25.95 63.006 26.25 62.616 26.67C62.226 27.1 61.973 27.63 61.891 28.2C61.81 28.77 61.902 29.35 62.158 29.86C62.413 30.38 62.819 30.8 63.321 31.08ZM101.16 24.74C101.879 25.27 102.42 26.01 102.711 26.85L102.931 27.36L96.651 29.94C96.845 30.38 97.165 30.75 97.57 31C97.975 31.25 98.447 31.38 98.925 31.36C99.391 31.36 99.849 31.24 100.255 31.02C100.661 30.79 101.001 30.46 101.243 30.06L102.843 31.16C102.412 31.8 101.828 32.33 101.145 32.69C100.461 33.05 99.698 33.23 98.925 33.23C98.308 33.24 97.695 33.12 97.124 32.89C96.553 32.66 96.034 32.32 95.599 31.88C95.165 31.44 94.823 30.92 94.594 30.35C94.365 29.78 94.254 29.17 94.267 28.56C94.229 27.96 94.316 27.35 94.521 26.79C94.726 26.22 95.045 25.7 95.459 25.27C95.872 24.83 96.372 24.48 96.926 24.24C97.481 24 98.078 23.88 98.682 23.88C99.576 23.91 100.441 24.21 101.16 24.74ZM96.309 28.41C96.287 28.07 96.333 27.73 96.444 27.41C96.556 27.09 96.731 26.79 96.959 26.54C97.187 26.28 97.464 26.08 97.773 25.93C98.082 25.78 98.418 25.7 98.759 25.68C99.115 25.66 99.47 25.74 99.78 25.92C100.09 26.09 100.342 26.36 100.503 26.67L96.309 28.41ZM93.263 33.01H91.199V19.24H93.263V33.01ZM87.822 24.98H87.7551C87.444 24.63 87.063 24.36 86.637 24.17C86.211 23.98 85.75 23.88 85.2831 23.88C84.039 23.88 82.8461 24.37 81.966 25.25C81.087 26.13 80.592 27.32 80.592 28.56C80.592 29.8 81.087 30.98 81.966 31.86C82.8461 32.74 84.039 33.23 85.2831 33.23C85.75 33.24 86.213 33.14 86.64 32.95C87.067 32.76 87.448 32.48 87.7551 32.13H87.822V32.8C87.822 34.59 86.861 35.55 85.316 35.55C84.8 35.54 84.3 35.37 83.879 35.08C83.458 34.78 83.136 34.36 82.954 33.88L81.155 34.63C81.494 35.45 82.071 36.15 82.812 36.64C83.5541 37.13 84.426 37.39 85.316 37.39C87.733 37.39 89.731 35.97 89.731 32.52V24.21H87.822V24.98ZM83.602 30.54C84.085 31.06 84.748 31.39 85.46 31.45V31.44C85.813 31.42 86.159 31.34 86.478 31.19C86.797 31.03 87.082 30.82 87.316 30.56C87.55 30.29 87.728 29.98 87.839 29.65C87.951 29.32 87.994 28.96 87.965 28.61C87.992 28.26 87.948 27.91 87.836 27.57C87.724 27.24 87.546 26.93 87.313 26.67C87.079 26.4 86.795 26.19 86.477 26.03C86.158 25.88 85.813 25.79 85.46 25.77C84.748 25.84 84.085 26.16 83.602 26.69C83.12 27.21 82.852 27.9 82.852 28.61C82.852 29.32 83.12 30.01 83.602 30.54ZM112.368 19.25H107.434V33.01H109.487V27.79H112.368C112.949 27.82 113.531 27.73 114.077 27.53C114.623 27.32 115.122 27.01 115.544 26.61C115.965 26.21 116.301 25.73 116.531 25.2C116.761 24.67 116.879 24.09 116.879 23.51C116.879 22.93 116.761 22.36 116.531 21.82C116.301 21.29 115.965 20.81 115.544 20.41C115.122 20.01 114.623 19.7 114.077 19.5C113.531 19.3 112.949 19.21 112.368 19.24V19.25ZM109.487 25.85H112.368L112.434 25.87C112.759 25.89 113.084 25.85 113.391 25.74C113.697 25.63 113.978 25.46 114.216 25.24C114.453 25.02 114.643 24.75 114.772 24.45C114.902 24.16 114.969 23.84 114.969 23.51C114.969 23.19 114.902 22.87 114.772 22.57C114.643 22.27 114.453 22.01 114.216 21.78C113.978 21.56 113.697 21.39 113.391 21.28C113.084 21.18 112.759 21.13 112.434 21.15H109.487V25.85ZM125.094 23.87C124.341 23.83 123.593 24 122.94 24.38C122.287 24.76 121.758 25.31 121.418 25.98L123.25 26.74C123.43 26.41 123.703 26.14 124.037 25.96C124.37 25.78 124.749 25.7 125.127 25.73C125.389 25.7 125.655 25.72 125.909 25.79C126.163 25.86 126.4 25.98 126.606 26.15C126.812 26.31 126.982 26.52 127.107 26.75C127.232 26.98 127.31 27.24 127.334 27.5V27.64C126.675 27.29 125.939 27.11 125.193 27.11C123.217 27.11 121.209 28.21 121.209 30.21C121.228 30.63 121.333 31.05 121.518 31.43C121.702 31.82 121.962 32.16 122.282 32.44C122.602 32.73 122.976 32.94 123.381 33.08C123.787 33.21 124.215 33.26 124.641 33.23C125.159 33.26 125.676 33.16 126.14 32.93C126.604 32.7 126.997 32.35 127.279 31.91H127.345V33.01H129.332V27.73C129.332 25.31 127.511 23.89 125.149 23.89L125.094 23.87ZM123.228 30.24C123.228 31.07 124.167 31.42 124.84 31.42L124.895 31.44C125.496 31.42 126.072 31.19 126.516 30.79C126.96 30.38 127.243 29.83 127.312 29.24C126.739 28.92 126.091 28.76 125.436 28.78C124.398 28.78 123.228 29.14 123.228 30.24ZM136.583 24.21L134.221 30.17H134.144L131.694 24.21H129.486L133.162 32.54L131.065 37.18H133.217L138.923 24.21H136.583ZM120.094 33.01H118.03V19.24H120.094V33.01Z" fill="white"/>
<path d="M11.5235 8.28002C11.1605 8.72002 10.9785 9.27002 11.0155 9.83002V34.17C10.9815 34.73 11.1635 35.28 11.5235 35.71L11.6005 35.78L25.2425 22.15V21.84L11.6005 8.21002L11.5235 8.28002Z" fill="url(#paint0_linear_0_3540)"/>
<path d="M29.8332 26.7L25.2422 22.15V21.83L29.8002 17.29H29.8992L35.3072 20.35C36.8532 21.23 36.8532 22.66 35.3072 23.53L29.8992 26.59L29.8332 26.7Z" fill="url(#paint1_linear_0_3540)"/>
<path d="M29.9324 26.64L25.2424 22.01L11.5234 35.71C11.8374 35.98 12.2394 36.14 12.6594 36.15C13.0784 36.17 13.4894 36.03 13.8184 35.77L29.9324 26.64Z" fill="url(#paint2_linear_0_3540)"/>
<path d="M29.9324 17.35L13.8184 8.22001C13.4864 7.96001 13.0774 7.83001 12.6594 7.84001C12.2414 7.86001 11.8404 8.01001 11.5234 8.28001L25.2424 22.01L29.9324 17.35Z" fill="url(#paint3_linear_0_3540)"/>
<path opacity="0.2" d="M29.8332 26.54L13.8182 35.62C13.4992 35.85 13.1122 35.98 12.7152 35.98C12.3172 35.98 11.9302 35.85 11.6112 35.62L11.5342 35.69L11.6112 35.77C11.9302 36.01 12.3172 36.14 12.7152 36.14C13.1122 36.14 13.4992 36.01 13.8182 35.77L29.9322 26.64L29.8332 26.54Z" fill="black"/>
<path opacity="0.12" d="M11.5232 35.54C11.1632 35.11 10.9812 34.56 11.0152 34V34.17C10.9812 34.73 11.1632 35.28 11.5232 35.71L11.6002 35.63L11.5232 35.54Z" fill="black"/>
<path opacity="0.12" d="M35.3413 23.42L29.8223 26.54L29.9213 26.64L35.3303 23.58C35.6473 23.45 35.9233 23.23 36.1293 22.96C36.3343 22.68 36.4623 22.35 36.4993 22.01C36.4283 22.32 36.2863 22.61 36.0853 22.85C35.8843 23.09 35.6293 23.29 35.3413 23.42Z" fill="black"/>
<path opacity="0.25" d="M13.8176 8.38001L35.3406 20.57C35.6326 20.7 35.8896 20.9 36.0906 21.15C36.2926 21.4 36.4316 21.7 36.4986 22.01C36.4666 21.67 36.3416 21.34 36.1386 21.06C35.9346 20.78 35.6586 20.55 35.3406 20.42L13.8176 8.22001C12.2726 7.35001 11.0146 8.07001 11.0146 9.83001V10C11.0146 8.23001 12.2726 7.51001 13.8176 8.38001Z" fill="white"/>
<defs>
<linearGradient id="paint0_linear_0_3540" x1="19.2788" y1="-8.30861" x2="-2.57238" y2="-2.4633" gradientUnits="userSpaceOnUse">
<stop stop-color="#00A0FF"/>
<stop offset="0.01" stop-color="#00A1FF"/>
<stop offset="0.26" stop-color="#00BEFF"/>
<stop offset="0.51" stop-color="#00D2FF"/>
<stop offset="0.76" stop-color="#00DFFF"/>
<stop offset="1" stop-color="#00E3FF"/>
</linearGradient>
<linearGradient id="paint1_linear_0_3540" x1="37.3492" y1="10.8043" x2="10.6402" y2="10.8043" gradientUnits="userSpaceOnUse">
<stop stop-color="#FFE000"/>
<stop offset="0.41" stop-color="#FFBD00"/>
<stop offset="0.78" stop-color="#FFA500"/>
<stop offset="1" stop-color="#FF9C00"/>
</linearGradient>
<linearGradient id="paint2_linear_0_3540" x1="11.0556" y1="14.9036" x2="-6.35648" y2="44.5077" gradientUnits="userSpaceOnUse">
<stop stop-color="#FF3A44"/>
<stop offset="1" stop-color="#C31162"/>
</linearGradient>
<linearGradient id="paint3_linear_0_3540" x1="0.77596" y1="4.49144" x2="8.57615" y2="17.6956" gradientUnits="userSpaceOnUse">
<stop stop-color="#32A071"/>
<stop offset="0.07" stop-color="#2DA771"/>
<stop offset="0.48" stop-color="#15CF74"/>
<stop offset="0.8" stop-color="#06E775"/>
<stop offset="1" stop-color="#00F076"/>
</linearGradient>
</defs>
</svg>
